<?xml version="1.0" encoding="iso-8859-1"?>
<!-- Generator: Adobe Illustrator 19.0.0, SVG Export Plug-In . SVG Version: 6.00 Build 0)  -->
<svg version="1.1" id="Capa_1" xmlns="http://www.w3.org/2000/svg" xmlns:xlink="http://www.w3.org/1999/xlink" x="0px" y="0px"
	 viewBox="0 0 512 512" style="enable-background:new 0 0 512 512;" xml:space="preserve">
<path style="fill:#E1E4FB;" d="M310,232c-5.7,6.299-9,14.7-9,24c0,13.2,6.899,25.199,17.401,30.599C363.1,310,391,356.6,391,407v60
	c0,8.399-6.599,15-15,15H136c-8.401,0-15-6.601-15-15v-60c0-50.4,27.9-97,72.599-120.401C204.101,281.199,211,269.2,211,256
	c0-9.3-3.6-18.001-9-24.3c-0.3-0.3-0.901-0.601-1.5-1.201c-2.1-2.1-4.501-3.9-6.901-5.099c-39.899-21-66.299-59.399-71.699-103.5
	c-0.6-5.1-0.9-10.5-0.9-15.9V30h270v76c0,5.099-0.3,10.201-0.901,15v0.3c-5.099,44.099-31.5,83.099-71.699,104.099
	c-2.401,1.199-4.801,2.999-6.901,5.099c-0.599,0.601-0.899,0.901-1.199,1.201L310,232z"/>
<path style="fill:#C5C9F7;" d="M256,482h120c8.401,0,15-6.601,15-15v-60c0-50.4-27.9-97-72.599-120.401
	C307.899,281.199,301,269.2,301,256c0-9.3,3.3-17.701,9-24l0.3-0.3c0.3-0.3,0.601-0.601,1.199-1.201c2.1-2.1,4.501-3.9,6.901-5.099
	c40.199-21,66.599-60,71.699-104.099V121c0.601-4.799,0.901-9.901,0.901-15V30H256V482z"/>
<path style="fill:#994C0F;" d="M421,15v15c0,16.5-13.5,30-30,30H121c-16.5,0-30-13.5-30-30V15c0-8.401,6.599-15,15-15h300
	C414.401,0,421,6.599,421,15z"/>
<path style="fill:#713708;" d="M421,15v15c0,16.5-13.5,30-30,30H256V0h150C414.401,0,421,6.599,421,15z"/>
<path style="fill:#994C0F;" d="M421,482v15c0,8.399-6.599,15-15,15H106c-8.401,0-15-6.601-15-15v-15c0-16.5,13.5-30,30-30h270
	C407.5,452,421,465.5,421,482z"/>
<path style="fill:#713708;" d="M421,482v15c0,8.399-6.599,15-15,15H256v-60h135C407.5,452,421,465.5,421,482z"/>
<path style="fill:#FEA832;" d="M390.099,121v0.3c-5.099,44.099-31.5,83.099-71.699,104.099c-2.401,1.199-4.801,2.999-6.901,5.099
	c-0.599,0.601-0.899,0.901-1.199,1.201L310,232c-11.1,9-24.3,20.999-26.7,24.3c-5.999,9.3-16.2,14.7-27.3,14.7
	s-21.301-5.4-27.299-14.7c-2.1-3.301-15.601-15.601-26.7-24.6c-0.3-0.3-0.901-0.601-1.5-1.201c-2.1-2.1-4.501-3.9-6.901-5.099
	c-39.899-21-66.299-59.399-71.699-103.5c0.298-0.3,0.298-0.599,0.298-0.899L390.099,121L390.099,121z"/>
<path style="fill:#FE9923;" d="M256,271c11.1,0,21.301-5.4,27.299-14.7C285.7,252.999,298.9,241,310,232l0.3-0.3
	c0.3-0.3,0.601-0.601,1.199-1.201c2.1-2.1,4.501-3.9,6.901-5.099c40.199-21,66.599-60,71.699-104.099V121H256V271z"/>
<g>
</g>
<g>
</g>
<g>
</g>
<g>
</g>
<g>
</g>
<g>
</g>
<g>
</g>
<g>
</g>
<g>
</g>
<g>
</g>
<g>
</g>
<g>
</g>
<g>
</g>
<g>
</g>
<g>
</g>
</svg>
